<?xml version="1.0" encoding="UTF-8" standalone="no"?>
<!DOCTYPE svg PUBLIC "-//W3C//DTD SVG 1.1//EN"
 "http://www.w3.org/Graphics/SVG/1.1/DTD/svg11.dtd">
<!-- Generated by graphviz version 15.1.0~dev.20260610.0127 (20260610.0127)
 -->
<!-- Title: X Pages: 1 -->
<svg width="141pt" height="277pt"
 viewBox="0.00 0.00 141.00 277.00" xmlns="http://www.w3.org/2000/svg" xmlns:xlink="http://www.w3.org/1999/xlink">
<g id="graph0" class="graph" transform="scale(1 1) rotate(0) translate(4 272.8)">
<title>X</title>
<polygon fill="white" stroke="none" points="-4,4 -4,-272.8 137,-272.8 137,4 -4,4"/>
<!-- a -->
<g id="node1" class="node">
<title>a</title>
<ellipse fill="none" stroke="black" cx="96" cy="-234" rx="27" ry="18"/>
<text xml:space="preserve" text-anchor="middle" x="96" y="-229.8" font-family="Times,serif" font-size="14.00">a</text>
<text xml:space="preserve" text-anchor="middle" x="62.39" y="-256.2" font-family="Times,serif" font-size="14.00">xa</text>
</g>
<!-- b -->
<g id="node2" class="node">
<title>b</title>
<ellipse fill="none" stroke="black" cx="41" cy="-162" rx="27" ry="18"/>
<text xml:space="preserve" text-anchor="middle" x="41" y="-157.8" font-family="Times,serif" font-size="14.00">b</text>
<text xml:space="preserve" text-anchor="middle" x="7" y="-184.2" font-family="Times,serif" font-size="14.00">xb</text>
</g>
<!-- a&#45;&gt;b -->
<g id="edge1" class="edge">
<title>a&#45;&gt;b</title>
<path fill="none" stroke="black" d="M83.79,-217.46C76.89,-208.67 68.09,-197.48 60.27,-187.53"/>
<polygon fill="black" stroke="black" points="63.04,-185.38 54.11,-179.68 57.53,-189.71 63.04,-185.38"/>
<text xml:space="preserve" text-anchor="middle" x="61.96" y="-202.28" font-family="Times,serif" font-size="14.00">e1</text>
</g>
<!-- c -->
<g id="node3" class="node">
<title>c</title>
<ellipse fill="none" stroke="black" cx="79" cy="-90" rx="27" ry="18"/>
<text xml:space="preserve" text-anchor="middle" x="79" y="-85.8" font-family="Times,serif" font-size="14.00">c</text>
<text xml:space="preserve" text-anchor="middle" x="45.39" y="-112.2" font-family="Times,serif" font-size="14.00">xc</text>
</g>
<!-- a&#45;&gt;c -->
<g id="edge3" class="edge">
<title>a&#45;&gt;c</title>
<path fill="none" stroke="black" d="M93.92,-215.59C91.05,-191.61 85.84,-148.14 82.4,-119.42"/>
<polygon fill="black" stroke="black" points="85.89,-119.13 81.23,-109.61 78.94,-119.96 85.89,-119.13"/>
<text xml:space="preserve" text-anchor="middle" x="80.88" y="-166.1" font-family="Times,serif" font-size="14.00">e3</text>
</g>
<!-- d -->
<g id="node4" class="node">
<title>d</title>
<ellipse fill="none" stroke="black" cx="106" cy="-18" rx="27" ry="18"/>
<text xml:space="preserve" text-anchor="middle" x="106" y="-13.8" font-family="Times,serif" font-size="14.00">d</text>
<text xml:space="preserve" text-anchor="middle" x="72" y="-40.2" font-family="Times,serif" font-size="14.00">xd</text>
</g>
<!-- a&#45;&gt;d -->
<g id="edge5" class="edge">
<title>a&#45;&gt;d</title>
<path fill="none" stroke="black" d="M100.25,-216.12C107.11,-186.84 119.44,-124.73 115,-72 114.32,-63.97 113.08,-55.33 111.73,-47.4"/>
<polygon fill="black" stroke="black" points="115.17,-46.79 109.93,-37.58 108.29,-48.05 115.17,-46.79"/>
<text xml:space="preserve" text-anchor="middle" x="108.04" y="-130.92" font-family="Times,serif" font-size="14.00">e5</text>
</g>
<!-- b&#45;&gt;c -->
<g id="edge2" class="edge">
<title>b&#45;&gt;c</title>
<path fill="none" stroke="black" d="M49.81,-144.76C54.27,-136.55 59.8,-126.37 64.84,-117.09"/>
<polygon fill="black" stroke="black" points="67.82,-118.94 69.51,-108.48 61.67,-115.6 67.82,-118.94"/>
<text xml:space="preserve" text-anchor="middle" x="53.41" y="-130.17" font-family="Times,serif" font-size="14.00">e2</text>
</g>
<!-- c&#45;&gt;d -->
<g id="edge4" class="edge">
<title>c&#45;&gt;d</title>
<path fill="none" stroke="black" d="M85.54,-72.05C88.52,-64.32 92.13,-54.96 95.48,-46.27"/>
<polygon fill="black" stroke="black" points="98.65,-47.79 98.98,-37.2 92.12,-45.27 98.65,-47.79"/>
<text xml:space="preserve" text-anchor="middle" x="86.01" y="-57.91" font-family="Times,serif" font-size="14.00">e4</text>
</g>
</g>
</svg>
